<svg width="12" height="20" viewBox="0 0 12 20" fill="none" xmlns="http://www.w3.org/2000/svg">
<path d="M5.4003 9.9399C3.81318 8.14116 2.33187 6.34242 0.744749 4.54368C0.00409111 3.69721 -0.207525 2.63914 0.215707 1.58106C0.850557 -0.0060635 3.17834 -0.535099 4.44804 0.628792C5.40031 1.58107 6.24675 2.74496 7.19902 3.80304C8.46872 5.28435 9.63261 6.65987 10.9023 8.14118C11.8546 9.30507 11.9604 10.6806 10.9023 11.8445C8.89196 14.1722 6.88162 16.6058 4.87126 18.9336C4.0248 19.9917 2.75509 20.3091 1.5912 19.6743C0.215695 19.0394 -0.419154 17.1349 0.53312 15.8652C1.37959 14.7013 2.33186 13.6432 3.17832 12.5851C3.91898 11.7386 4.65965 10.8922 5.4003 9.9399Z" fill="white"/>
</svg>
